<svg xmlns="http://www.w3.org/2000/svg" xmlns:xlink="http://www.w3.org/1999/xlink" width="1200" zoomAndPan="magnify" viewBox="0 0 900 138.749998" height="185" preserveAspectRatio="xMidYMid meet" version="1.0"><defs><clipPath id="cb69ff1d4c"><path d="M 0.808594 0 L 899.191406 0 L 899.191406 138.5 L 0.808594 138.5 Z M 0.808594 0 " clip-rule="nonzero"/></clipPath><clipPath id="8a5e3c31a9"><path d="M 0.808594 12 L 891 12 L 891 132.097656 L 0.808594 132.097656 Z M 0.808594 12 " clip-rule="nonzero"/></clipPath></defs><g clip-path="url(#cb69ff1d4c)"><path fill="#ffffff" d="M 0.808594 0 L 899.191406 0 L 899.191406 138.5 L 0.808594 138.5 Z M 0.808594 0 " fill-opacity="1" fill-rule="nonzero"/><path fill="#000000" d="M 0.808594 0 L 899.191406 0 L 899.191406 138.5 L 0.808594 138.5 Z M 0.808594 0 " fill-opacity="1" fill-rule="nonzero"/></g><g clip-path="url(#8a5e3c31a9)"><path fill="#f0efeb" d="M -23.023438 790.046875 C 26.066406 917.542969 170.511719 987.164062 302.679688 1044.71875 C 371.570312 1074.714844 455.78125 1104.070312 519.546875 1065.523438 C 568.554688 1035.890625 585.675781 976.277344 628.464844 939.269531 C 686.664062 888.957031 781.140625 889.171875 838.90625 838.453125 C 896.464844 787.90625 898.863281 703.203125 880.800781 631.632812 C 862.734375 560.0625 828.367188 491.109375 826.285156 417.632812 C 824.101562 340.859375 857.527344 266.71875 861.621094 190.007812 C 865.714844 113.292969 823.308594 22.527344 741.046875 13.3125 C 678.242188 6.285156 622.507812 49.460938 560.734375 62.105469 C 489.335938 76.71875 416.886719 49.695312 346.15625 32.554688 C 275.421875 15.414062 190.160156 11.535156 139.441406 60.367188 C 67.378906 129.75 116.835938 243.769531 105.136719 339.464844 C 94.699219 424.917969 33.460938 496.464844 -4.230469 575.042969 C -41.921875 653.617188 -36.308594 755.507812 -23.003906 790.046875 Z M -23.023438 790.046875 " fill-opacity="1" fill-rule="nonzero"/></g></svg>