<svg width="100%" viewBox="120 0 500 120" height="100%" version="1.0" xmlns="http://www.w3.org/2000/svg"><defs><clipPath id="a"><path d="M.809 0H899.19v138.5H.81Zm0 0"/></clipPath><clipPath id="b"><path d="M.809 12H891v120.098H.809Zm0 0"/></clipPath></defs><g clip-path="url(#a)" fill="none"><path d="M.809 0H899.19v138.5H.81Zm0 0"/><path d="M.809 0H899.19v138.5H.81Zm0 0"/></g><g clip-path="url(#b)" transform="translate(-17.075 -6.403)"><path fill="#f0efeb" d="M-78.518 812.102c49.09 127.496 193.536 197.117 325.704 254.672 68.89 29.996 153.101 59.352 216.867 20.805 49.008-29.633 66.129-89.246 108.918-126.254 58.199-50.313 152.676-50.098 210.441-100.817 57.559-50.546 59.957-135.25 41.895-206.82-18.067-71.57-52.434-140.523-54.516-214-2.184-76.773 31.242-150.914 35.336-227.625 4.094-76.715-38.312-167.48-120.574-176.695-62.805-7.028-118.54 36.148-180.313 48.793-71.398 14.613-143.847-12.41-214.578-29.551-70.734-17.14-155.996-21.02-206.715 27.813-72.062 69.382-22.605 183.402-34.304 279.097-10.438 85.453-71.676 157-109.368 235.578-37.69 78.575-32.078 180.465-18.773 215.004zm0 0"/></g></svg>